# xmcd
#
# Track frame offsets: 
#        150
#        13434
#        24238
#        36245
#        48101
#        62150
#        74076
#        86319
#        97078
#        109705
#        122346
#        134178
#        146540
#        159321
#        173426
#        186853
#        197178
#        208390
#        222376
#        233685
#
# Disc length: 3299 seconds
#
# Revision: 1
# Processed by: cddbd v1.5.2PL0 Copyright (c) Steve Scherf et al.
# Submitted via: ExactAudioCopy v0.99pb5
#
DISCID=260ce114
DTITLE=Johnny Otis - "Rocks" Ain't nothin' shakin'
DYEAR=2006
DGENRE=Blues
TTITLE0=Hound dog
TTITLE1=Bump on a log
TTITLE2=You're fine but not my kind
TTITLE3=Cupid's boogie
TTITLE4=It ain't the beauty
TTITLE5=All nite long
TTITLE6=I found out my troubles
TTITLE7=I'm living ok
TTITLE8=Beer bottle boogie
TTITLE9=Feel like crying again
TTITLE10=The turkey hop
TTITLE11=Mambo boogie
TTITLE12=The deacon moves in
TTITLE13=Because I love my baby so
TTITLE14=Ring-a-ding-doo
TTITLE15=Good ole blues
TTITLE16=Ain't nothing shakin'
TTITLE17=If it's so baby
TTITLE18=The little red hen
TTITLE19=Headhunter
EXTD=
EXTT0=
EXTT1=
EXTT2=
EXTT3=
EXTT4=
EXTT5=
EXTT6=
EXTT7=
EXTT8=
EXTT9=
EXTT10=
EXTT11=
EXTT12=
EXTT13=
EXTT14=
EXTT15=
EXTT16=
EXTT17=
EXTT18=
EXTT19=
PLAYORDER=
